PathFileType	4	(X/Y/Z)	C:\Users\MAHE\Documents\generic-specific-tibial-stress-mtlb\PublicDataset\P01\Gait\WBDS01static1.trc
DataRate	CameraRate	NumFrames	NumMarkers	Units	OrigDataRate	OrigDataStartFrame	OrigNumFrames
150.000000	150.000000	4	28	mm	150.000000	18	150
Frame#	Time	L.Ankle			L.Ankle.Medial			L.ASIS			L.GTR			L.Heel			L.HF			L.Iliac.Crest			L.Knee			L.Knee.Medial			L.MT1			L.MT2			L.MT5			L.PSIS			L.TT			R.Ankle			R.Ankle.Medial			R.ASIS			R.GTR			R.Heel			R.HF			R.Iliac.Crest			R.Knee			R.Knee.Medial			R.MT1			R.MT2			R.MT5			R.PSIS			R.TT			
		X1	Y1	Z1	X2	Y2	Z2	X3	Y3	Z3	X4	Y4	Z4	X5	Y5	Z5	X6	Y6	Z6	X7	Y7	Z7	X8	Y8	Z8	X9	Y9	Z9	X10	Y10	Z10	X11	Y11	Z11	X12	Y12	Z12	X13	Y13	Z13	X14	Y14	Z14	X15	Y15	Z15	X16	Y16	Z16	X17	Y17	Z17	X18	Y18	Z18	X19	Y19	Z19	X20	Y20	Z20	X21	Y21	Z21	X22	Y22	Z22	X23	Y23	Z23	X24	Y24	Z24	X25	Y25	Z25	X26	Y26	Z26	X27	Y27	Z27	X28	Y28	Z28	

19	0.12	691.083984375	75.79286956787109	1043.178588867188	709.9432373046875	86.93341827392578	1127.838989257813	804.3215942382813	955.1209716796875	1085.083374023438	715.053466796875	880.0778198242188	1040.57763671875	635.8753051757813	47.60115432739258	1083.7412109375	698.9382934570313	432.6599426269531	1043.807006835938	716.758056640625	1032.822875976563	1046.989135742188	718.4622802734375	495.1600341796875	1052.95361328125	723.2378540039063	486.5098876953125	1179.505004882813	841.5172729492188	40.86854934692383	1101.8583984375	841.9505004882813	35.31417083740234	1073.103393554688	814.7257690429688	28.85927581787109	1021.691528320313	614.7783813476563	1002.679443359375	1194.684326171875	758.4716186523438	420.0461730957031	1087.24853515625	689.236572265625	72.88111877441406	1399.364990234375	705.8046875	91.75839233398438	1314.314208984375	808.6495361328125	953.8880004882813	1364.454345703125	705.2600708007813	888.1351928710938	1405.411376953125	636.9526977539063	49.68186569213867	1349.49755859375	710.9066162109375	440.2647705078125	1404.13671875	726.5577392578125	1031.26904296875	1406.010864257813	727.77978515625	495.8794250488281	1395.217651367188	729.3521728515625	481.8398132324219	1270.4638671875	842.3054809570313	43.21041870117188	1341.787109375	842.548583984375	37.78196716308594	1365.055053710938	810.0819091796875	31.50533294677734	1416.268920898438	616.7015380859375	1000.627258300781	1264.66064453125	767.3440551757813	423.6390991210938	1347.716186523438	
20	0.1266666666666667	691.1026611328125	75.81575775146484	1043.166137695313	709.9492797851563	86.93987274169922	1127.829345703125	804.2738037109375	955.1302490234375	1085.07470703125	715.0115966796875	880.0814819335938	1040.584594726563	635.87451171875	47.58649063110352	1083.744750976563	698.9414672851563	432.6623229980469	1043.7939453125	716.7117919921875	1032.826782226563	1046.997436523438	718.4754638671875	495.1522216796875	1052.948852539063	723.2409057617188	486.5350646972656	1179.517211914063	841.4989624023438	40.88511657714844	1101.851196289063	841.9483032226563	35.32389450073242	1073.08740234375	814.727294921875	28.86629867553711	1021.693664550781	614.7379150390625	1002.685485839844	1194.692504882813	758.4639282226563	420.0397644042969	1087.249389648438	689.2257690429688	72.8734130859375	1399.381713867188	705.8041381835938	91.76860809326172	1314.314575195313	808.6137084960938	953.905029296875	1364.435546875	705.2504272460938	888.14404296875	1405.42529296875	636.9401245117188	49.67434692382813	1349.510131835938	710.9411010742188	440.262939453125	1404.144165039063	726.5465087890625	1031.279174804688	1405.998657226563	727.8123779296875	495.8729248046875	1395.220336914063	729.3754272460938	481.8387756347656	1270.465942382813	842.305419921875	43.21262741088867	1341.7705078125	842.5448608398438	37.7944450378418	1365.029296875	810.0778198242188	31.50769233703613	1416.26123046875	616.674560546875	1000.619384765625	1264.660034179688	767.3720703125	423.6329345703125	1347.71728515625	
21	0.1333333333333333	691.0980834960938	75.81855010986328	1043.151123046875	709.9485473632813	86.94932556152344	1127.82568359375	804.2210083007813	955.1398315429688	1085.078735351563	714.9674682617188	880.0726928710938	1040.58203125	635.8756103515625	47.59511566162109	1083.734252929688	698.9608764648438	432.6561279296875	1043.791015625	716.6771240234375	1032.834594726563	1046.99365234375	718.4791259765625	495.1494750976563	1052.949340820313	723.234619140625	486.5140380859375	1179.497314453125	841.4896850585938	40.90519714355469	1101.838989257813	841.9432373046875	35.33282852172852	1073.07958984375	814.7281494140625	28.8587760925293	1021.687316894531	614.70556640625	1002.674865722656	1194.694946289063	758.48876953125	420.0471496582031	1087.25	689.2310791015625	72.87801361083984	1399.380737304688	705.8016967773438	91.76943969726563	1314.31982421875	808.5814819335938	953.9077758789063	1364.404907226563	705.2328491210938	888.1422119140625	1405.432006835938	636.9385375976563	49.67495346069336	1349.515991210938	710.9720458984375	440.2632751464844	1404.15283203125	726.52099609375	1031.305053710938	1405.974487304688	727.8560180664063	495.8826904296875	1395.211059570313	729.416748046875	481.8460388183594	1270.471069335938	842.2985229492188	43.22565078735352	1341.782836914063	842.5400390625	37.8065299987793	1365.023559570313	810.0755004882813	31.51275062561035	1416.269287109375	616.6432495117188	1000.610656738281	1264.679077148438	767.4063110351563	423.6370544433594	1347.724609375	
22	0.14	691.0966186523438	75.81703186035156	1043.148803710938	709.9576416015625	86.94657135009766	1127.816528320313	804.1862182617188	955.150146484375	1085.06298828125	714.9266967773438	880.0753784179688	1040.5859375	635.8763427734375	47.58974075317383	1083.733520507813	698.9711303710938	432.6527099609375	1043.78857421875	716.6253051757813	1032.828247070313	1046.997802734375	718.4868774414063	495.1542358398438	1052.945434570313	723.2601318359375	486.5107727050781	1179.491455078125	841.491455078125	40.91804122924805	1101.826049804688	841.9432983398438	35.34870910644531	1073.076416015625	814.7218627929688	28.85098648071289	1021.682434082031	614.6732788085938	1002.662231445313	1194.700561523438	758.4840698242188	420.0480651855469	1087.2431640625	689.2400512695313	72.88471221923828	1399.3837890625	705.8088989257813	91.76490020751953	1314.323364257813	808.5468139648438	953.91650390625	1364.391967773438	705.2156982421875	888.1466674804688	1405.444946289063	636.9384155273438	49.66984558105469	1349.513671875	711.0133666992188	440.2632446289063	1404.155883789063	726.5070190429688	1031.31201171875	1405.958984375	727.8923950195313	495.8733215332031	1395.221557617188	729.43896484375	481.8430480957031	1270.482543945313	842.2978515625	43.23118209838867	1341.80810546875	842.5369262695313	37.82955932617188	1365.035034179688	810.079833984375	31.51419258117676	1416.265014648438	616.6100463867188	1000.602783203125	1264.678344726563	767.4567260742188	423.6348266601563	1347.724853515625	
